<mxfile host="app.diagrams.net" modified="2022-01-22T16:32:45.023Z" agent="5.0 (Windows NT 10.0; Win64; x64) AppleWebKit/537.36 (KHTML, like Gecko) Chrome/97.0.4692.99 Safari/537.36" etag="eJDWkQyFfaQcfhTy9-5u" version="16.4.5" type="github">
  <diagram id="0JTsgQ7GYBZioECr1tv-" name="Page-1">
    <mxGraphModel dx="1422" dy="794" grid="1" gridSize="10" guides="1" tooltips="1" connect="1" arrows="1" fold="1" page="1" pageScale="1" pageWidth="827" pageHeight="1169" math="0" shadow="0">
      <root>
        <mxCell id="0" />
        <mxCell id="1" parent="0" />
        <mxCell id="qjgfTP3FjzpIUQy-6dcN-1" value="Actor" style="shape=umlActor;verticalLabelPosition=bottom;verticalAlign=top;html=1;outlineConnect=0;" vertex="1" parent="1">
          <mxGeometry x="130" y="350" width="30" height="60" as="geometry" />
        </mxCell>
        <mxCell id="qjgfTP3FjzpIUQy-6dcN-4" value="" style="shape=cube;whiteSpace=wrap;html=1;boundedLbl=1;backgroundOutline=1;darkOpacity=0.05;darkOpacity2=0.1;" vertex="1" parent="1">
          <mxGeometry x="240" y="360" width="120" height="80" as="geometry" />
        </mxCell>
        <mxCell id="qjgfTP3FjzpIUQy-6dcN-5" value="" style="curved=1;endArrow=classic;html=1;rounded=0;exitX=0.508;exitY=0.988;exitDx=0;exitDy=0;exitPerimeter=0;" edge="1" parent="1" source="qjgfTP3FjzpIUQy-6dcN-4" target="qjgfTP3FjzpIUQy-6dcN-1">
          <mxGeometry width="50" height="50" relative="1" as="geometry">
            <mxPoint x="390" y="540" as="sourcePoint" />
            <mxPoint x="240" y="560" as="targetPoint" />
            <Array as="points">
              <mxPoint x="350" y="530" />
              <mxPoint x="340" y="450" />
            </Array>
          </mxGeometry>
        </mxCell>
      </root>
    </mxGraphModel>
  </diagram>
</mxfile>
